<svg width="24" height="24" viewBox="0 0 24 24" fill="none" xmlns="http://www.w3.org/2000/svg">
<path d="M21.0004 20.2501C21.0004 20.449 20.9214 20.6398 20.7807 20.7804C20.6401 20.9211 20.4493 21.0001 20.2504 21.0001H6.75039C6.55148 21.0001 6.36071 20.9211 6.22006 20.7804C6.07941 20.6398 6.00039 20.449 6.00039 20.2501C6.00039 20.0512 6.07941 19.8604 6.22006 19.7198C6.36071 19.5791 6.55148 19.5001 6.75039 19.5001H20.2504C20.4493 19.5001 20.6401 19.5791 20.7807 19.7198C20.9214 19.8604 21.0004 20.0512 21.0004 20.2501ZM19.5004 9.3751H14.4191L10.3973 4.99698C10.363 4.95872 10.3211 4.92809 10.2743 4.90709C10.2275 4.88609 10.1767 4.87519 10.1254 4.8751H8.54102C8.36262 4.87264 8.18635 4.91412 8.02776 4.99586C7.86918 5.07761 7.73314 5.19712 7.63164 5.34385C7.52608 5.4876 7.45652 5.65455 7.42879 5.83072C7.40106 6.00689 7.41597 6.18713 7.47227 6.35635L8.48477 9.3751H6.17852L4.41602 7.25635C4.37979 7.21495 4.33509 7.18181 4.28496 7.15917C4.23482 7.13653 4.1804 7.12491 4.12539 7.1251H2.51289C2.33678 7.12437 2.16293 7.16466 2.00509 7.24276C1.84725 7.32087 1.70976 7.43465 1.60352 7.5751C1.49937 7.71588 1.42983 7.87919 1.40051 8.05183C1.37119 8.22447 1.38293 8.40159 1.43477 8.56885L2.74727 12.9657C2.95248 13.6636 3.37885 14.2759 3.96219 14.7104C4.54552 15.145 5.25425 15.3782 5.98164 15.3751H22.5004C22.5998 15.3751 22.6952 15.3356 22.7656 15.2653C22.8359 15.1949 22.8754 15.0996 22.8754 15.0001V12.7501C22.8754 11.855 22.5198 10.9966 21.8869 10.3636C21.2539 9.73068 20.3955 9.3751 19.5004 9.3751Z" fill="black"/>
</svg>
