<svg width="25" height="24" viewBox="0 0 25 24" fill="none" xmlns="http://www.w3.org/2000/svg">
<path d="M12.25 2.25C10.3216 2.25 8.43657 2.82183 6.83319 3.89317C5.22982 4.96451 3.98013 6.48726 3.24218 8.26884C2.50422 10.0504 2.31114 12.0108 2.68735 13.9021C3.06355 15.7934 3.99215 17.5307 5.35571 18.8943C6.71928 20.2579 8.45656 21.1865 10.3479 21.5627C12.2392 21.9389 14.1996 21.7458 15.9812 21.0078C17.7627 20.2699 19.2855 19.0202 20.3568 17.4168C21.4282 15.8134 22 13.9284 22 12C21.995 9.41566 20.9662 6.93859 19.1388 5.11118C17.3114 3.28378 14.8343 2.25496 12.25 2.25ZM17.5 12.75H12.25C12.0511 12.75 11.8603 12.671 11.7197 12.5303C11.579 12.3897 11.5 12.1989 11.5 12V6.75C11.5 6.55109 11.579 6.36032 11.7197 6.21967C11.8603 6.07902 12.0511 6 12.25 6C12.4489 6 12.6397 6.07902 12.7803 6.21967C12.921 6.36032 13 6.55109 13 6.75V11.25H17.5C17.6989 11.25 17.8897 11.329 18.0303 11.4697C18.171 11.6103 18.25 11.8011 18.25 12C18.25 12.1989 18.171 12.3897 18.0303 12.5303C17.8897 12.671 17.6989 12.75 17.5 12.75Z" fill="black"/>
</svg>
