<svg width="26" height="27" viewBox="0 0 26 27" fill="none" xmlns="http://www.w3.org/2000/svg">
<path d="M13 0.987305C10.4288 0.987305 7.91543 1.74974 5.77759 3.1782C3.63975 4.60666 1.97351 6.63698 0.989572 9.01242C0.0056327 11.3879 -0.251811 14.0017 0.249797 16.5235C0.751405 19.0452 1.98953 21.3616 3.80762 23.1797C5.6257 24.9978 7.94208 26.2359 10.4638 26.7375C12.9856 27.2391 15.5995 26.9817 17.9749 25.9977C20.3503 25.0138 22.3807 23.3476 23.8091 21.2097C25.2376 19.0719 26 16.5585 26 13.9873C25.9934 10.5415 24.6216 7.23876 22.1851 4.80222C19.7486 2.36567 16.4458 0.993912 13 0.987305ZM18 14.9873H8.00001C7.73479 14.9873 7.48044 14.8819 7.2929 14.6944C7.10536 14.5069 7.00001 14.2525 7.00001 13.9873C7.00001 13.7221 7.10536 13.4677 7.2929 13.2802C7.48044 13.0927 7.73479 12.9873 8.00001 12.9873H18C18.2652 12.9873 18.5196 13.0927 18.7071 13.2802C18.8946 13.4677 19 13.7221 19 13.9873C19 14.2525 18.8946 14.5069 18.7071 14.6944C18.5196 14.8819 18.2652 14.9873 18 14.9873Z" fill="black"/>
</svg>
