<svg width="20" height="20" viewBox="0 0 20 20" fill="none" xmlns="http://www.w3.org/2000/svg">
<circle cx="10" cy="10" r="10" fill="#DBDDED"/>
<path d="M18.1408 4.03907V7.78907C18.1408 7.95483 18.0749 8.1138 17.9577 8.23101C17.8405 8.34822 17.6815 8.41407 17.5158 8.41407H13.7658C13.6428 8.41386 13.5226 8.37738 13.4202 8.30918C13.3179 8.24097 13.2379 8.14409 13.1904 8.03065C13.1428 7.91722 13.1298 7.79228 13.153 7.67148C13.1761 7.55069 13.2344 7.4394 13.3205 7.35157L14.758 5.91407L14.422 5.57813C13.5477 4.70475 12.434 4.11018 11.2218 3.86959C10.0096 3.62899 8.75333 3.75317 7.6117 4.22642C6.47006 4.69967 5.49436 5.50076 4.8079 6.52841C4.12145 7.55607 3.75507 8.76417 3.75507 10C3.75507 11.2358 4.12145 12.4439 4.8079 13.4716C5.49436 14.4993 6.47006 15.3003 7.6117 15.7736C8.75333 16.2468 10.0096 16.371 11.2218 16.1304C12.434 15.8898 13.5477 15.2953 14.422 14.4219C14.4795 14.3631 14.5482 14.3163 14.624 14.2844C14.6998 14.2525 14.7812 14.2361 14.8634 14.2361C14.9457 14.2361 15.0271 14.2525 15.1029 14.2844C15.1787 14.3163 15.2474 14.3631 15.3048 14.4219C15.4217 14.539 15.4874 14.6978 15.4874 14.8633C15.4874 15.0288 15.4217 15.1875 15.3048 15.3047C14.2558 16.3532 12.9194 17.0671 11.4647 17.3562C10.0099 17.6453 8.50212 17.4965 7.1319 16.9287C5.76168 16.361 4.59057 15.3997 3.76664 14.1664C2.9427 12.9331 2.50293 11.4832 2.50293 10C2.50293 8.51681 2.9427 7.06692 3.76664 5.83363C4.59057 4.60035 5.76168 3.63905 7.1319 3.07128C8.50212 2.50351 10.0099 2.35476 11.4647 2.64383C12.9194 2.9329 14.2558 3.64681 15.3048 4.69532L15.6408 5.03125L17.0705 3.60157C17.1572 3.51358 17.268 3.45326 17.389 3.42823C17.51 3.4032 17.6356 3.41458 17.7502 3.46094C17.8642 3.50924 17.9618 3.58956 18.0311 3.69216C18.1004 3.79476 18.1385 3.91526 18.1408 4.03907Z" fill="black"/>
</svg>
