<svg width="27" height="27" viewBox="0 0 27 27" fill="none" xmlns="http://www.w3.org/2000/svg">
<path d="M20.0002 12.5C20.0002 13.9834 19.5603 15.4334 18.7362 16.6668C17.9121 17.9002 16.7408 18.8614 15.3703 19.4291C13.9999 19.9968 12.4919 20.1453 11.037 19.8559C9.58216 19.5665 8.24579 18.8522 7.19689 17.8033C6.148 16.7544 5.43369 15.418 5.1443 13.9632C4.85491 12.5083 5.00344 11.0003 5.5711 9.62988C6.13875 8.25944 7.10005 7.0881 8.33342 6.26399C9.56679 5.43988 11.0168 5.00001 12.5002 5.00001C14.4893 5.00001 16.397 5.79019 17.8035 7.19671C19.21 8.60323 20.0002 10.5109 20.0002 12.5ZM26.7002 26.7125C26.5135 26.8963 26.2622 26.9996 26.0002 27C25.7347 26.9989 25.4796 26.896 25.2877 26.7125L19.8877 21.3C17.6134 23.2103 14.6895 24.1688 11.7257 23.9756C8.7619 23.7825 5.9871 22.4526 3.98 20.2633C1.97291 18.074 0.888485 15.1944 0.95291 12.225C1.01733 9.25564 2.22563 6.42577 4.32579 4.32561C6.42596 2.22545 9.25583 1.01715 12.2252 0.952727C15.1946 0.888302 18.0742 1.97272 20.2635 3.97982C22.4528 5.98692 23.7826 8.76172 23.9758 11.7255C24.169 14.6893 23.2104 17.6132 21.3002 19.8875L26.7002 25.2875C26.7947 25.3806 26.8697 25.4915 26.9209 25.6138C26.9721 25.7361 26.9985 25.8674 26.9985 26C26.9985 26.1326 26.9721 26.2639 26.9209 26.3862C26.8697 26.5085 26.7947 26.6195 26.7002 26.7125ZM12.5002 22C14.3791 22 16.2158 21.4428 17.7781 20.399C19.3404 19.3551 20.558 17.8714 21.277 16.1355C21.9961 14.3996 22.1842 12.4895 21.8177 10.6467C21.4511 8.80383 20.5463 7.11109 19.2177 5.7825C17.8891 4.4539 16.1964 3.54911 14.3536 3.18255C12.5107 2.81599 10.6006 3.00412 8.8647 3.72316C7.1288 4.44219 5.64511 5.65983 4.60123 7.22209C3.55736 8.78436 3.00019 10.6211 3.00019 12.5C3.0035 15.0186 4.00545 17.433 5.78633 19.2139C7.56721 20.9948 9.98165 21.9967 12.5002 22Z" fill="black"/>
</svg>
