<svg width="20" height="19" viewBox="0 0 20 19" fill="none" xmlns="http://www.w3.org/2000/svg">
<path d="M19.7406 17.8752C18.3412 15.4644 16.1011 13.655 13.45 12.7939C14.7207 12.0383 15.7082 10.8863 16.2608 9.51495C16.8134 8.14362 16.9004 6.62881 16.5086 5.20321C16.1167 3.77762 15.2677 2.5201 14.0918 1.62385C12.916 0.727599 11.4784 0.242187 9.99997 0.242188C8.5215 0.242187 7.08393 0.727599 5.90809 1.62385C4.73225 2.5201 3.88319 3.77762 3.49135 5.20321C3.09951 6.62881 3.18656 8.14362 3.73912 9.51495C4.29169 10.8863 5.2792 12.0383 6.54997 12.7939C3.89881 13.655 1.65878 15.4644 0.259343 17.8752C0.190635 17.9882 0.154297 18.1179 0.154297 18.2502C0.154297 18.3824 0.190635 18.5121 0.259343 18.6252C0.323446 18.7401 0.417376 18.8356 0.531226 18.9016C0.645077 18.9676 0.774628 19.0016 0.906217 19.0002H19.0937C19.2253 19.0016 19.3549 18.9676 19.4687 18.9016C19.5826 18.8356 19.6765 18.7401 19.7406 18.6252C19.8093 18.5121 19.8456 18.3824 19.8456 18.2502C19.8456 18.1179 19.8093 17.9882 19.7406 17.8752Z" fill="black"/>
</svg>
